<svg xmlns="http://www.w3.org/2000/svg" width="566.999" height="220" viewBox="0 0 566.999 220">
  <g id="CEMARC" transform="translate(-252.001 -404)">
    <g id="Grupo_286" data-name="Grupo 286" transform="translate(201.508 142.786)">
      <path id="Trazado_311" data-name="Trazado 311" d="M191.179,521.47c-.259-.205-.506-.43-.78-.612a3.337,3.337,0,0,1,.728-6,9.514,9.514,0,0,1,2.369-.324c2.967-.036,5.934-.015,9.007-.015V480.035h-1.616c-8.65,0-17.3.039-25.949-.048a6.466,6.466,0,0,1-3.292-1.09,2.84,2.84,0,0,1-.9-3.571,3.386,3.386,0,0,1,2.936-2.16,8.13,8.13,0,0,1,1.08-.01c21.669,0,43.339.028,65.008-.034,2.837-.008,3.982,1.78,4.039,3.46.063,1.851-1.9,3.451-4.176,3.452q-12.975.006-25.949,0h-1.675v34.481c.92,0,1.844-.02,2.768,0,2.641.067,5.295.02,7.918.277a2.836,2.836,0,0,1,2.733,2.632,3.222,3.222,0,0,1-1.809,3.544,2.6,2.6,0,0,0-.539.5Z" transform="translate(-87.558 -106.47)" fill="#545871"/>
      <path id="Trazado_312" data-name="Trazado 312" d="M393.215,486.207c-2.368-1.04-3.33-2.751-3.286-5.428.138-8.374.049-16.751.052-25.127a5.965,5.965,0,0,1,5.878-5.929c4.726-.006,9.452,0,14.339,0,.472-2.288.951-4.555,1.406-6.827.824-4.1,1.512-8.242,2.487-12.31.825-3.444,3.216-5.469,5.985-5.736,4.9-.471,7.644,2.266,8.326,5.4a13.11,13.11,0,0,1-.164,5.008c-1.054,5.72-2.229,11.418-3.418,17.112-.508,2.434-.691,4.979-2.637,6.924a7.662,7.662,0,0,1-5.611,2.289c-5.449.04-10.9.013-16.348.013h-1.351c0,2.368.021,4.634-.012,6.9-.011.748-.248,1.5-.235,2.24.052,2.916.372,5.846.178,8.743-.129,1.928.345,4.221-1.689,5.64-.56.391-1.158.726-1.739,1.086Z" transform="translate(-247.689 -71.207)" fill="#545871"/>
      <path id="Trazado_313" data-name="Trazado 313" d="M112.253,486.19c-2.4-1.024-3.331-2.806-3.274-5.437.126-5.852.039-11.709.039-17.563v-1.61h-17.5c-4.558,0-7.367-2.519-8.214-7.032-1.146-6.106-2.5-12.172-3.688-18.27-.4-2.067-.96-4.128-.366-6.305a7.7,7.7,0,0,1,6.283-5.163c4.906-.422,7.6,2.725,8.36,7.006,1.053,5.943,2.352,11.842,3.572,17.888H105c2.252,0,4.5,0,6.756,0a5.751,5.751,0,0,1,5.894,5.852c.006,8.377-.078,16.755.049,25.13.041,2.671-.791,4.5-3.281,5.5Z" transform="translate(-20.798 -71.189)" fill="#545871"/>
      <path id="Trazado_314" data-name="Trazado 314" d="M236.386,417.732c.272-3.618.282-7.128.859-10.543a9.115,9.115,0,0,1,8.72-7.089c6.344.132,12.693.1,19.038.015,5.6-.078,8.785,3.746,9.509,8.293.479,3.006.091,6.15.091,9.42H263.693v-7.2H246.8v7.1Z" transform="translate(-135.648 -53.185)" fill="#4a8cd2"/>
      <path id="Trazado_315" data-name="Trazado 315" d="M443.787,489.392c2.5-.124,5.015-.113,7.495-.4,3.818-.447,6.348-3.925,7.042-7.515,1.155-5.971,2.3-11.945,3.55-17.9.641-3.049,2.9-3.834,5.28-2.437a3.451,3.451,0,0,1,1.379,3.611c-1.347,6.514-2.588,13.052-4.052,19.539-1.381,6.117-6.662,11.351-12.878,11.691-4.611.252-9.239.248-13.86.281a3.423,3.423,0,0,1-3.661-2.5,3.29,3.29,0,0,1,1.276-3.794,4.23,4.23,0,0,1,2.075-.665c2.113-.085,4.232-.031,6.349-.031Z" transform="translate(-279.803 -97.24)" fill="#545871"/>
      <path id="Trazado_316" data-name="Trazado 316" d="M74.82,496.653a82.921,82.921,0,0,1-9.174-.835,13.321,13.321,0,0,1-10.339-9.353,107.867,107.867,0,0,1-2.757-11.678c-.71-3.273-1.3-6.572-1.973-9.852-.394-1.911.638-3.846,2.292-4.175,2.292-.457,3.8.617,4.25,2.89q1.849,9.332,3.786,18.646a8.758,8.758,0,0,0,8.837,7.121c3.781-.056,7.564-.012,11.346-.011,2.334,0,3.782,1.178,3.878,3.062.134,2.627-1.285,3.779-3.779,3.922-2.109.121-4.231.025-6.347.025Z" transform="translate(0 -97.375)" fill="#545871"/>
      <path id="Trazado_317" data-name="Trazado 317" d="M283.833,327.216a8.3,8.3,0,0,1,8.216,8.265c-.105,4.8-3.613,8.429-8.461,8.27a8.1,8.1,0,0,1-8.088-8.372A8.257,8.257,0,0,1,283.833,327.216Z" transform="translate(-164.189)" fill="#4a8cd2"/>
      <path id="Trazado_318" data-name="Trazado 318" d="M80.355,357.976a8.185,8.185,0,0,1,8.378,8.3c-.225,5.335-3.756,8.368-8.468,8.326-4.54-.04-8.057-3.228-8.2-8.318A8.148,8.148,0,0,1,80.355,357.976Z" transform="translate(-15.741 -22.444)" fill="#545871"/>
      <path id="Trazado_319" data-name="Trazado 319" d="M495.262,366.276a8.3,8.3,0,0,1-16.6.146,8.3,8.3,0,1,1,16.6-.146Z" transform="translate(-312.438 -22.364)" fill="#545871"/>
    </g>
    <text id="CEMARC_Centro_de_Medios_Alternativos_de_Resolución_de_Conflictos" data-name="CEMARC
Centro de Medios 
Alternativos 
de Resolución 
de Conflictos" transform="translate(426 445)" fill="#545871" font-size="42" font-family="Montserrat-SemiBold, Montserrat" font-weight="600"><tspan x="0" y="0">CEMARC</tspan><tspan x="0" y="42">Centro de Medios </tspan><tspan x="0" y="84">Alternativos </tspan><tspan x="0" y="126">de Resolución </tspan><tspan x="0" y="168">de Conflictos</tspan></text>
  </g>
</svg>
